<?xml version="1.0" encoding="UTF-8" standalone="no"?>
<svg width="28px" height="26px" viewBox="0 0 28 26" version="1.1" xmlns="http://www.w3.org/2000/svg" xmlns:xlink="http://www.w3.org/1999/xlink">
    <!-- Generator: Sketch 41 (35326) - http://www.bohemiancoding.com/sketch -->
    <title>open</title>
    <desc>Created with Sketch.</desc>
    <defs></defs>
    <g id="Page-1" stroke="none" stroke-width="1" fill="none" fill-rule="evenodd">
        <g id="open" fill="#2CA532">
            <path d="M15.49,18.49 L16.7,19.7 L23.41,13 L16.71,6.29 L15.5,7.5 L18.59,10.67 C19.124911,11.2305647 19.7633348,11.6822156 20.47,12 L20.53,12 L0,12 L0,14 L20.53,14 L20.43,14 C19.741709,14.3072999 19.1174856,14.7415422 18.59,15.28 L15.49,18.49 Z" id="Shape"></path>
            <polygon id="Shape" points="8 0 8 6 10 6 10 2 26 2 26 24 10 24 10 20 8 20 8 26 28 26 28 0"></polygon>
        </g>
    </g>
</svg>