<svg width="512" height="512" xmlns="http://www.w3.org/2000/svg">
 <g>
  <title>background</title>
  <rect x="-1" y="-1" width="514" height="514" id="canvas_background" fill="none"/>
 </g>

 <g>
  <title>Layer 1</title>
  <path d="m383.6,322.7l-105,100.3c-5.8,6 -13.7,9 -22.4,9c-8.7,0 -16.5,-3 -22.4,-9l-105.4,-100.3c-12.5,-11.9 -12.5,-31.3 0,-43.2c12.5,-11.9 32.7,-11.9 45.2,0l50.4,48.2l0,-217c0,-16.9 14.3,-30.6 32,-30.6c17.7,0 32,13.7 32,30.6l0,217l50.4,-48.2c12.5,-11.9 32.7,-11.9 45.2,0c12.5,11.9 12.5,31.2 0,43.2z" id="svg_1" transform="rotate(-45 255.99999999999991,256.0499877929687) " fill="#bf0000"/>
 </g>
</svg>