<?xml version="1.0" encoding="UTF-8" standalone="no"?>
<svg width="26px" height="26px" viewBox="0 0 26 26" version="1.1" xmlns="http://www.w3.org/2000/svg" xmlns:xlink="http://www.w3.org/1999/xlink">
    <!-- Generator: Sketch 41 (35326) - http://www.bohemiancoding.com/sketch -->
    <title>cook</title>
    <desc>Created with Sketch.</desc>
    <defs></defs>
    <g id="Page-1" stroke="none" stroke-width="1" fill="none" fill-rule="evenodd">
        <g id="cook" transform="translate(1.000000, 1.000000)" stroke="#FFFFFF" fill="#FFFFFF">
            <path d="M24,8 C24,4.7 21.3,2 18,2 C17.5,2 17.1,2.1 16.6,2.2 C15.5,0.8 13.9,0 12,0 C10.1,0 8.5,0.8 7.4,2.2 C6.9,2.1 6.5,2 6,2 C2.7,2 0,4.7 0,8 C0,10.6 1.7,12.8 4,13.7 L4,23 C4,23.6 4.4,24 5,24 L19,24 C19.6,24 20,23.6 20,23 L20,13.7 C22.3,12.8 24,10.6 24,8 Z M18,22 L6,22 L6,20 L18,20 L18,22 Z M18,12 L18,19 L6,19 L6,12 C3.8,12 2,10.2 2,8 C2,5.8 3.8,4 6,4 L6.3,4 C7,4.1 7.7,4.3 8.2,4.7 C8.5,4 8.8,3.5 9.4,3 C10.1,2.4 11,2 12,2 C13,2 13.9,2.4 14.6,3 C15.1,3.4 15.5,4 15.7,4.7 C16.3,4.3 17,4.1 17.7,4 L18,4 C20.2,4 22,5.8 22,8 C22,10.2 20.2,12 18,12 Z" id="Shape"></path>
        </g>
    </g>
</svg>