<?xml version="1.0" ?><svg height="24px" version="1.1" viewBox="0 0 24 24" width="24px" xmlns="http://www.w3.org/2000/svg" xmlns:sketch="http://www.bohemiancoding.com/sketch/ns" xmlns:xlink="http://www.w3.org/1999/xlink"><title/><desc/><defs/><g fill="none" fill-rule="evenodd" id="miu" stroke="none" stroke-width="1"><g id="Artboard-1" transform="translate(-575.000000, -515.000000)"><g id="slice" transform="translate(215.000000, 119.000000)"/><path d="M587,517.5 L586,516 L586,523.012014 L584,524.917837 L582.002367,523.012014 L582.002367,516 L581,517.5 L581,523.5 L583.5,526 C583.5,526 583.25,528.851328 583.25,531.5 C583.25,534.148672 583.5,538 583.5,538 L584.5,538 C584.5,538 584.75,534.128897 584.75,531.5 C584.75,528.871103 584.5,526 584.5,526 L587,523.5 L587,517.5 Z M591.176471,516.988817 C591.176471,516.988817 593.058824,516.988817 593.058824,520.978407 C593.058824,525.13925 592.130859,525.711044 592.130859,525.711044 L593.058824,525.711044 C593.058824,525.711044 594,525.221217 594,520.978407 C594,519.458309 593.551585,516 590.235294,516 L590.235294,526.202603 C590.235294,526.202603 590,529.151952 590,531.609743 C590,534.067534 590.235294,538 590.235294,538 L591.176471,538 C591.176471,538 591.411765,534.176973 591.411765,531.609743 C591.411765,529.042513 591.176471,526.202603 591.176471,526.202603 L591.176471,516.988817 L591.176471,516.988817 Z M583.5,516 L583.5,523 L584.5,523 L584.5,516 L583.5,516 L583.5,516 Z" fill="#000000" id="food-fork-knife-restaurant-eating-outline-stroke"/></g></g></svg>