<?xml version="1.0" encoding="UTF-8" standalone="no"?>
<svg width="24px" height="24px" viewBox="0 0 13 22" version="1.1" xmlns="http://www.w3.org/2000/svg" xmlns:xlink="http://www.w3.org/1999/xlink">
    <!-- Generator: Sketch 41 (35326) - http://www.bohemiancoding.com/sketch -->
    <title>serves</title>
    <desc>Created with Sketch.</desc>
    <defs></defs>
    <g id="Page-1" stroke="none" stroke-width="1" fill="none" fill-rule="evenodd">
        <g id="serves" fill="#FFFFFF">
            <g id="miu">
                <g id="Artboard-1">
                    <path d="M6,1.5 L5,0 L5,7.012014 L3,8.917837 L1.002367,7.012014 L1.002367,0 L0,1.5 L0,7.5 L2.5,10 C2.5,10 2.25,12.851328 2.25,15.5 C2.25,18.148672 2.5,22 2.5,22 L3.5,22 C3.5,22 3.75,18.128897 3.75,15.5 C3.75,12.871103 3.5,10 3.5,10 L6,7.5 L6,1.5 Z M10.176471,0.988817 C10.176471,0.988817 12.058824,0.988817 12.058824,4.978407 C12.058824,9.13925 11.130859,9.711044 11.130859,9.711044 L12.058824,9.711044 C12.058824,9.711044 13,9.221217 13,4.978407 C13,3.458309 12.551585,0 9.235294,0 L9.235294,10.202603 C9.235294,10.202603 9,13.151952 9,15.609743 C9,18.067534 9.235294,22 9.235294,22 L10.176471,22 C10.176471,22 10.411765,18.176973 10.411765,15.609743 C10.411765,13.042513 10.176471,10.202603 10.176471,10.202603 L10.176471,0.988817 L10.176471,0.988817 Z M2.5,0 L2.5,7 L3.5,7 L3.5,0 L2.5,0 L2.5,0 Z" id="food-fork-knife-restaurant-eating-outline-stroke"></path>
                </g>
            </g>
        </g>
    </g>
</svg>