<svg width="256" height="256" xmlns="http://www.w3.org/2000/svg">
 <style type="text/css">.st0{fill:none;stroke:#000000;stroke-width:4;stroke-linecap:round;stroke-linejoin:round;stroke-miterlimit:10;}</style>
 <defs>
  <filter height="200%" width="200%" y="-50%" x="-50%" id="svg_6_blur">
   <feGaussianBlur stdDeviation="0" in="SourceGraphic"/>
  </filter>
 </defs>
 <g>
  <title>background</title>
  <rect fill="none" id="canvas_background" height="402" width="582" y="-1" x="-1"/>
 </g>
 <g>
  <title>Layer 1</title>
  <path id="svg_1" d="m57.368,145.813" class="st0"/>
  <g id="svg_2">
   <path id="svg_3" d="m114.94,168.612c10.65,-21.561 31.949,-58.705 32.096,-64.536s-8.007,-11.123 -12.931,-8.943c-4.925,2.181 -22.399,23.595 -34.688,35.355c0,-34.498 -1.576,-101.133 0,-103.493s78.78,-4.446 81.301,-0.98c2.521,3.466 1.891,124.282 0,126.426c-1.891,2.144 -42.314,0.392 -42.314,0.392" fill="red" class="st0"/>
   <path id="svg_4" d="m150.32,165.378c-0.876,5.183 -2.901,13.081 -8.036,21.365c-3.172,5.117 -8.544,10.872 -9.604,11.761s-1.459,8.421 -0.196,8.82c1.263,0.399 10.35,-0.098 10.976,1.303c0.626,1.401 2.618,20.39 0.588,21.826c-2.03,1.436 -67.116,2.007 -68.96,0.392c-1.845,-1.615 -1.496,-20.682 0.161,-22.345s30.316,-0.261 45.474,-0.392" class="st0"/>
   <path id="svg_5" d="m90.929,88.738c-6.174,5.488 -14.563,15.728 -16.269,19.993c-1.706,4.265 -0.98,45.572 -0.196,49.002s7.871,19.111 7.84,22.737s0.588,14.799 0.392,17.641" class="st0"/>
  </g>
  <path filter="url(#svg_6_blur)" id="svg_6" d="m101.27505,28.23315c0,0 0.3643,97.08562 0.3643,97.08562c6.40641,-6.30631 31.14755,-31.87614 31.14755,-31.87614c0,0 2.18579,-0.7286 2.14571,-0.72861c0.04008,0.00001 1.67942,-0.18214 1.67942,-0.18214c0,0 1.4572,0 1.41712,0c0.04008,0 2.04372,0.3643 2.04372,0.3643c0,0 1.63934,0.7286 1.59927,0.72859c0.04007,0.00001 1.67942,0.54645 1.67942,0.54645c-0.54645,0.3643 0.35609,0.8927 1.45719,1.0929c0.5005,1.1011 1.63935,1.63934 1.63935,1.63934c0,0 1.45719,1.4572 1.45719,1.4572c0,0 1.0929,2.18579 1.0929,2.18579c0,0 0.54645,3.09654 0.54645,3.09654c0,0 -0.91075,3.82514 -0.91075,3.82514c0,0 -21.85792,43.35155 -21.85792,43.35155c0,0 11.65756,0 11.65756,0c0,0 17.48634,0.18215 17.48634,0.18215c0,0 9.65391,0.18215 9.65391,0.18215c0,0 13.6612,0 13.6612,0c0,0 1.4572,-33.51549 1.4572,-33.51549c0,0 0,-30.78324 0,-30.78324c0,0 0,-25.68306 0,-25.68306c0,0 -0.7286,-29.32605 -0.7286,-29.32605c0,0 -0.3643,-4.73588 -0.3643,-4.73588c0,0 -17.30419,-0.91075 -17.30419,-0.91075c0,0 -26.41166,0.18215 -26.41166,0.18215c0,0 -8.65209,0.45537 -17.30419,0.91074" stroke-opacity="null" stroke-width="NaN" stroke="null" fill="#ff0000"/>
 </g>
</svg>